<svg width="63" height="32" viewBox="0 0 63 32" fill="none" xmlns="http://www.w3.org/2000/svg">
<g filter="url(#filter0_d_204_2)">
<path d="M32.696 19.3246V21.2547H36.8154C37.2206 21.2547 37.5245 21.493 37.5245 21.7551C37.5245 22.0172 37.1869 22.2555 36.8154 22.2555H27.1584C26.7532 22.2555 26.4493 22.0172 26.4493 21.7551C26.4493 21.493 26.787 21.2547 27.1584 21.2547H31.2778V19.3246H21.4182C20.6416 19.3246 20 18.8719 20 18.3238V8.7211C20 8.17305 20.6416 7.72032 21.4182 7.72032H26.2467C26.6519 7.72032 26.9558 7.9586 26.9558 8.22071C26.9558 8.48282 26.6181 8.7211 26.2467 8.7211H21.4182V12.9149V18.3238H31.9531C31.9531 18.3238 31.9531 18.3238 31.9869 18.3238C31.9869 18.3238 31.9869 18.3238 32.0207 18.3238H42.5556V8.7211H37.7609C37.3557 8.7211 37.0518 8.48282 37.0518 8.22071C37.0518 7.9586 37.3894 7.72032 37.7609 7.72032H42.5894C43.366 7.72032 44.0076 8.17305 44.0076 8.7211V18.3238C44.0076 18.8719 43.366 19.3246 42.5894 19.3246H32.696ZM32.0544 0C33.2362 0.0238281 34.1817 0.714844 34.1479 1.54883C34.1142 2.19219 33.5401 2.74024 32.7298 2.93086V15.5359C32.7298 15.8219 32.3921 16.0363 32.0207 16.0363C31.6155 16.0363 31.3116 15.7981 31.3116 15.5359V2.93086C31.0077 2.85938 30.7038 2.71641 30.4674 2.54961C30.0622 2.26367 29.8596 1.88242 29.8596 1.47734C29.8934 0.667188 30.8389 0 32.0207 0H32.0544ZM32.0207 1.00078C31.6155 1.00078 31.3116 1.21524 31.2778 1.50117C31.2778 1.64414 31.3453 1.76328 31.4804 1.85859C31.6155 1.95391 31.7843 2.00156 31.9869 2.02539H32.0207C32.3921 2.02539 32.7298 1.81094 32.7298 1.525C32.696 1.23906 32.3921 1.02461 32.0207 1.00078ZM34.418 13.177V5.38516C34.418 4.47969 35.4648 3.74102 36.7479 3.74102H38.3687C38.6726 3.14531 39.4492 2.74024 40.3946 2.74024C41.5764 2.74024 42.5556 3.43125 42.5556 4.26524C42.5556 5.09922 41.5764 5.79024 40.3946 5.79024C39.4492 5.79024 38.6726 5.36133 38.3687 4.78946H36.7479C36.2414 4.78946 35.87 5.07539 35.87 5.40899V13.2008C35.87 13.4867 35.5323 13.7012 35.1609 13.7012C34.7557 13.7012 34.418 13.4629 34.418 13.177ZM39.6855 4.26524C39.6855 4.55117 39.9894 4.76563 40.3946 4.76563C40.7998 4.76563 41.1037 4.55117 41.1037 4.26524C41.1037 3.9793 40.7998 3.74102 40.3946 3.74102C39.9894 3.74102 39.6855 3.9793 39.6855 4.26524ZM28.1038 13.177V5.38516C28.1038 5.02774 27.6986 4.76563 27.2259 4.76563H25.6051C25.3012 5.36133 24.5246 5.76641 23.5792 5.76641C22.3974 5.76641 21.4182 5.07539 21.4182 4.24141C21.4182 3.40742 22.3974 2.71641 23.5792 2.71641C24.5246 2.71641 25.3012 3.14531 25.6051 3.71719H27.2259C28.509 3.71719 29.5558 4.45586 29.5558 5.36133V13.1531C29.5558 13.4391 29.2181 13.6535 28.8467 13.6535C28.4752 13.6535 28.1038 13.4629 28.1038 13.177ZM24.2883 4.26524C24.2883 3.9793 23.9844 3.76485 23.5792 3.76485C23.174 3.76485 22.8701 3.9793 22.8701 4.26524C22.8701 4.55117 23.174 4.76563 23.5792 4.76563C23.9844 4.76563 24.2883 4.52735 24.2883 4.26524Z" fill="#FFFDFD"/>
</g>
<path d="M4.31164 31.9101C3.53283 31.9101 2.55086 31.7826 1.65919 31.3924C0.857813 31.0499 0 30.1896 0 29.0267C0 28.5409 0.180592 27.7842 1.04969 27.0434C2.04295 26.1912 3.31838 26.0319 4.33421 26.0319C5.27103 26.0319 6.14013 26.1354 7.08824 26.6611C7.94605 27.139 8.63456 27.9435 8.63456 29.0427C8.63456 29.6241 8.37496 30.2295 7.78804 30.787C7.05438 31.4322 6.09498 31.9101 4.31164 31.9101ZM4.40193 31.5357C6.49003 31.5357 6.8625 29.7595 6.8625 29.1064C6.8625 27.362 5.23717 26.4062 4.28906 26.4062C4.06332 26.4062 3.49897 26.3664 2.81047 26.8363C2.14453 27.2824 1.80592 28.1187 1.80592 28.7718C1.80592 30.8109 3.46511 31.5357 4.40193 31.5357ZM12.269 28.6125V29.2975C12.269 29.433 12.269 31.1534 12.3028 31.472H12.9462C13.4767 31.472 13.9846 31.472 14.5941 31.4322C15.2036 31.3924 15.9711 30.4366 16.1404 30.1418C16.1743 30.0941 16.2081 30.0702 16.2759 30.0941L16.5016 30.1578C16.5355 30.1737 16.5355 30.1817 16.5242 30.2295C16.4903 30.2852 16.0388 31.5995 15.9711 31.8145C15.6777 31.7986 12.427 31.7906 11.3886 31.7906C10.2712 31.7906 9.86485 31.8145 9.71811 31.8145C9.6391 31.8145 9.62782 31.7986 9.62782 31.7428V31.5437C9.62782 31.5039 9.6391 31.4879 9.70683 31.4879H10.0567C10.4743 31.4879 10.5421 31.3764 10.5421 31.2888C10.5421 31.1375 10.5759 29.1542 10.5759 28.6683V28.2223C10.5759 27.7125 10.5534 26.8682 10.5421 26.7408C10.5195 26.5337 10.4631 26.454 10.2035 26.454H9.78584C9.71811 26.454 9.70683 26.4142 9.70683 26.3744V26.1832C9.70683 26.1434 9.71811 26.1274 9.78584 26.1274C9.90999 26.1274 10.3163 26.1513 11.3434 26.1513C12.664 26.1513 13.1381 26.1274 13.2397 26.1274C13.33 26.1274 13.3412 26.1513 13.3412 26.2071V26.3903C13.3412 26.4301 13.3187 26.454 13.2284 26.454H12.6979C12.348 26.454 12.3028 26.5337 12.3028 26.7487C12.3028 26.8523 12.269 28.055 12.269 28.6125ZM18.1947 29.0108V28.4532C18.1947 28.2621 18.1608 26.8284 18.1495 26.7248C18.1269 26.5337 18.0141 26.454 17.777 26.454H17.2353C17.1788 26.454 17.145 26.4381 17.145 26.4062V26.1752C17.145 26.1434 17.1788 26.1274 17.224 26.1274C17.3594 26.1274 17.9351 26.1513 19.0412 26.1513C20.1925 26.1513 20.5536 26.1274 20.7117 26.1274C20.7681 26.1274 20.7907 26.1513 20.7907 26.1991V26.3983C20.7907 26.4381 20.7568 26.454 20.7004 26.454H20.373C20.0909 26.454 19.9216 26.5177 19.9216 26.6611C19.9216 26.7408 19.8877 28.501 19.8877 28.5966V29.2099C19.8877 29.2896 19.9216 31.1295 19.9216 31.2012C19.9216 31.4481 20.0909 31.4879 20.3053 31.4879H20.7681C20.8245 31.4879 20.8584 31.5039 20.8584 31.5437V31.7667C20.8584 31.7986 20.8245 31.8145 20.7568 31.8145C20.6214 31.8145 20.1699 31.7906 19.0976 31.7906C17.9125 31.7906 17.4271 31.8145 17.303 31.8145C17.2465 31.8145 17.2127 31.7986 17.2127 31.7508V31.5357C17.2127 31.5039 17.2465 31.4879 17.303 31.4879H17.6303C17.856 31.4879 18.0931 31.464 18.1382 31.2729C18.1608 31.1534 18.1947 29.433 18.1947 29.0108ZM26.6825 26.3823V26.1832C26.6825 26.1434 26.6938 26.1274 26.7502 26.1274C26.8518 26.1274 27.371 26.1513 28.1272 26.1513C29.1769 26.1513 29.4591 26.1274 29.5607 26.1274C29.6284 26.1274 29.6397 26.1434 29.6397 26.1991V26.3983C29.6397 26.4301 29.6284 26.454 29.5607 26.454H29.3011C29.1092 26.454 28.7593 26.5098 28.4658 26.8682C28.0144 27.4098 27.529 28.3497 27.1001 29.0188C26.8179 29.4489 25.5425 31.5835 25.3506 31.8145C25.2716 31.9101 25.2152 31.9499 25.091 31.9499C24.9443 31.9499 24.8991 31.8543 24.8314 31.7508C24.4138 31.1215 23.3867 29.194 23.0706 28.6444C22.7546 28.0948 22.1903 26.9399 22.0548 26.7169C21.9419 26.5337 21.8065 26.454 21.5695 26.454H21.276C21.2309 26.454 21.2196 26.4142 21.2196 26.3744V26.1832C21.2196 26.1434 21.2309 26.1274 21.2986 26.1274C21.4115 26.1274 21.7839 26.1513 23.1384 26.1513C24.3122 26.1513 24.8201 26.1274 24.9217 26.1274C25.0233 26.1274 25.0346 26.1513 25.0346 26.1991V26.3823C25.0346 26.4221 25.0233 26.454 24.9443 26.454H24.4589C24.1881 26.454 23.9736 26.5416 23.9736 26.6452C23.9736 26.7089 23.9736 26.8045 24.0075 26.916C24.0978 27.2027 24.5267 28.1506 24.7637 28.6125C24.9104 28.9073 25.4748 30.0781 25.6215 30.3888H25.6667C25.994 29.8551 26.547 28.8595 26.6938 28.5727C26.9082 28.1824 27.2581 27.5134 27.4387 27.1549C27.5516 26.9478 27.5516 26.8124 27.5516 26.7169C27.5516 26.6213 27.4161 26.454 27.0888 26.454H26.7389C26.6938 26.454 26.6825 26.4301 26.6825 26.3823ZM33.9626 31.9101C33.1838 31.9101 32.2018 31.7826 31.3102 31.3924C30.5088 31.0499 29.651 30.1896 29.651 29.0267C29.651 28.5409 29.8316 27.7842 30.7007 27.0434C31.6939 26.1912 32.9694 26.0319 33.9852 26.0319C34.922 26.0319 35.7911 26.1354 36.7392 26.6611C37.597 27.139 38.2855 27.9435 38.2855 29.0427C38.2855 29.6241 38.0259 30.2295 37.439 30.787C36.7054 31.4322 35.746 31.9101 33.9626 31.9101ZM34.0529 31.5357C36.141 31.5357 36.5135 29.7595 36.5135 29.1064C36.5135 27.362 34.8881 26.4062 33.94 26.4062C33.7143 26.4062 33.1499 26.3664 32.4614 26.8363C31.7955 27.2824 31.4569 28.1187 31.4569 28.7718C31.4569 30.8109 33.1161 31.5357 34.0529 31.5357ZM39.7528 30.0144L40.0463 30.0303C40.0915 30.0303 40.1253 30.0383 40.1253 30.0941C40.1479 30.341 40.3059 30.6835 40.5768 30.9941C40.9041 31.3605 41.4572 31.5357 41.999 31.5357C42.5407 31.5357 43.4098 31.2808 43.4098 30.6516C43.4098 29.9905 43.2292 29.7993 41.7619 29.4091C41.4233 29.3214 40.701 29.0666 40.1253 28.7161C39.7303 28.4692 39.561 28.047 39.561 27.5851C39.561 27.0992 39.7303 26.7726 40.4075 26.4142C40.9154 26.1434 41.3443 26.0319 42.0328 26.0319C42.8568 26.0319 43.297 26.1274 43.534 26.1912C43.6469 26.223 43.7259 26.2071 43.7936 26.1513L43.9403 26.0478C43.9855 26.0159 44.0419 26 44.1096 26C44.1886 26 44.2112 26.0876 44.2225 26.1354L44.4031 27.4974C44.4031 27.5293 44.3805 27.5373 44.3467 27.5452L44.0983 27.601C44.0419 27.6169 43.9855 27.601 43.9516 27.5452C43.8275 27.3142 43.6356 27.0036 43.2518 26.7169C42.9696 26.4938 42.631 26.3823 42.1231 26.3823C41.2766 26.3823 40.9267 26.9001 40.9267 27.1071C40.9267 27.4019 40.938 27.6408 41.2202 27.8399C41.5136 28.055 42.157 28.2462 42.71 28.3577C43.2518 28.4692 43.692 28.6683 44.1548 28.963C44.595 29.2418 44.7756 29.5923 44.7756 30.1498C44.7756 31.1215 43.7936 31.9101 42.3037 31.9101C41.2879 31.9101 40.7574 31.7906 40.2833 31.5676C40.1479 31.5039 40.0802 31.48 40.0237 31.48C39.956 31.48 39.9109 31.5357 39.8431 31.6154C39.7754 31.703 39.719 31.711 39.64 31.711C39.5158 31.711 39.4707 31.6711 39.482 31.5835L39.6626 30.0702C39.6738 30.0144 39.7077 30.0144 39.7528 30.0144ZM50.6222 29.3852V29.6799C50.6222 30.0542 50.6335 31.1375 50.6448 31.2331C50.6674 31.4083 50.7803 31.4879 50.9608 31.4879H51.5365C51.6155 31.4879 51.6268 31.5118 51.6268 31.5437V31.7508C51.6268 31.7906 51.6155 31.8145 51.5252 31.8145C51.3672 31.8145 51.0173 31.7906 49.6967 31.7906C48.7034 31.7906 48.2632 31.8145 48.1391 31.8145C48.0601 31.8145 48.0488 31.7906 48.0488 31.7588V31.5437C48.0488 31.5039 48.0601 31.4879 48.1165 31.4879H48.41C48.7937 31.4879 48.8727 31.4481 48.9066 31.249C48.9179 31.1693 48.9518 29.9268 48.9518 29.0028V28.0869C48.9518 27.5612 48.9405 26.7248 48.9292 26.6292C48.9066 26.4699 48.7937 26.454 48.568 26.454H48.0375C47.9811 26.454 47.9698 26.4381 47.9698 26.3903V26.1832C47.9698 26.1434 47.9811 26.1274 48.0375 26.1274C48.1617 26.1274 48.568 26.1513 49.7531 26.1513C49.9563 26.1513 50.6222 26.1274 50.9947 26.1274C52.383 26.1274 53.0489 26.2071 53.7036 26.5655C54.1776 26.8204 54.5163 27.2744 54.5163 27.8001C54.5163 28.7559 53.4327 29.4091 51.5365 29.4091C51.1866 29.4091 50.927 29.4011 50.6222 29.3852ZM50.6222 26.454V29.0745C50.8705 29.1143 51.1302 29.1223 51.3107 29.1223C51.6606 29.1223 52.225 28.8674 52.4733 28.5887C52.699 28.3417 52.7442 28.0391 52.7442 27.7444C52.7442 26.6452 51.6155 26.4142 51.1527 26.4142C50.9608 26.4142 50.8254 26.4221 50.6222 26.454ZM59.6293 31.9101C58.1281 31.9101 57.338 31.6233 56.6269 31.1773C55.7917 30.6516 55.3966 29.7356 55.3966 29.0506C55.3966 28.2302 55.7691 27.4895 56.5592 26.8921C57.2026 26.4062 58.1394 26.0319 59.539 26.0319C60.5661 26.0319 61.4126 26.2151 61.8077 26.3664C61.9657 26.4221 62.0221 26.4142 62.0447 26.3584L62.135 26.1593C62.1576 26.1115 62.1801 26.1115 62.3494 26.1115C62.5187 26.1115 62.5413 26.1274 62.5413 26.239C62.5413 26.3903 62.7445 27.7444 62.8009 27.9833C62.8122 28.0391 62.8009 28.0789 62.7445 28.0869L62.4962 28.1346C62.4397 28.1506 62.3946 28.1187 62.3607 28.047C62.2366 27.7284 61.9318 27.3222 61.4578 26.9797C60.9724 26.6452 60.3742 26.3823 59.5164 26.3823C57.8685 26.3823 57.1687 27.4417 57.18 28.6205C57.18 29.1223 57.3832 30.102 58.1845 30.6994C58.9182 31.2331 59.5615 31.2968 59.9453 31.2968C61.232 31.2968 62.1914 30.8826 62.609 30.4445C62.6655 30.3808 62.7219 30.3489 62.7783 30.3808L62.9702 30.5003C63.0041 30.5162 63.0154 30.5481 62.9702 30.5959C62.3156 31.2649 61.2207 31.9101 59.6293 31.9101Z" fill="#FFFDFD"/>
<defs>
<filter id="filter0_d_204_2" x="16" y="0" width="32.0076" height="30.2554" filterUnits="userSpaceOnUse" color-interpolation-filters="sRGB">
<feFlood flood-opacity="0" result="BackgroundImageFix"/>
<feColorMatrix in="SourceAlpha" type="matrix" values="0 0 0 0 0 0 0 0 0 0 0 0 0 0 0 0 0 0 127 0" result="hardAlpha"/>
<feOffset dy="4"/>
<feGaussianBlur stdDeviation="2"/>
<feComposite in2="hardAlpha" operator="out"/>
<feColorMatrix type="matrix" values="0 0 0 0 0 0 0 0 0 0 0 0 0 0 0 0 0 0 0.25 0"/>
<feBlend mode="normal" in2="BackgroundImageFix" result="effect1_dropShadow_204_2"/>
<feBlend mode="normal" in="SourceGraphic" in2="effect1_dropShadow_204_2" result="shape"/>
</filter>
</defs>
</svg>
