<svg width="408" height="133" viewBox="0 0 408 133" fill="none" xmlns="http://www.w3.org/2000/svg">
<path fill-rule="evenodd" clip-rule="evenodd" d="M67.4261 127.019V115.485H119.968C124.093 115.485 127.5 112.779 127.5 109.504V52.1178C127.5 48.8426 124.093 46.1371 119.968 46.1371H94.3249C92.3523 46.1371 90.5591 47.561 90.5591 49.1274C90.5591 50.6938 92.173 52.1178 94.3249 52.1178H119.789V109.504H63.8396H63.6603H63.481H7.53165V77.1799V52.1178H33.1751C35.1477 52.1178 36.9409 50.6938 36.9409 49.1274C36.9409 47.561 35.327 46.1371 33.1751 46.1371H7.53165C3.40717 46.1371 0 48.8426 0 52.1178V109.504C0 112.779 3.40717 115.485 7.53165 115.485H59.8945V127.019H38.0169C36.0443 127.019 34.251 128.443 34.251 130.01C34.251 131.576 35.865 133 38.0169 133H89.3038C91.2764 133 93.0696 131.576 93.0696 130.01C93.0696 128.443 91.4557 127.019 89.3038 127.019H67.4261ZM75.1371 9.25589C75.3164 4.27195 70.2953 0.142398 64.019 0H63.8396C57.5633 0 52.5422 3.98715 52.3629 8.82869C52.3629 11.2495 53.4388 13.5278 55.5907 15.2366C56.846 16.2334 58.4599 17.0878 60.0738 17.515V92.8437C60.0738 94.4101 61.6878 95.834 63.8396 95.834C65.8122 95.834 67.6055 94.5525 67.6055 92.8437V17.515C71.9093 16.3758 74.9578 13.1006 75.1371 9.25589ZM59.8945 8.97109C60.0738 7.26231 61.6878 5.98073 63.8396 5.98073C65.8122 6.12313 67.4261 7.40471 67.6055 9.11349C67.6055 10.8223 65.8122 12.1039 63.8396 12.1039H63.6603C62.5844 11.9615 61.6878 11.6767 60.9705 11.1071C60.2532 10.5375 59.8945 9.82548 59.8945 8.97109ZM76.5717 32.182V78.7463C76.5717 80.455 78.365 81.879 80.5169 81.879C82.4894 81.879 84.2827 80.5974 84.2827 78.8887V32.3244C84.2827 30.3308 86.2553 28.6221 88.9451 28.6221H97.5527C99.1667 32.0396 103.291 34.6028 108.312 34.6028C114.589 34.6028 119.789 30.4732 119.789 25.4893C119.789 20.5054 114.589 16.3758 108.312 16.3758C103.291 16.3758 99.1667 18.7966 97.5527 22.3565H88.9451C82.1308 22.3565 76.5717 26.7709 76.5717 32.182ZM108.312 28.4797C106.16 28.4797 104.546 27.1981 104.546 25.4893C104.546 23.7805 106.16 22.3565 108.312 22.3565C110.464 22.3565 112.078 23.7805 112.078 25.4893C112.078 27.1981 110.464 28.4797 108.312 28.4797ZM43.038 32.182V78.7463C43.038 80.455 45.0105 81.5942 46.9831 81.5942C48.9557 81.5942 50.7489 80.3126 50.7489 78.6039V32.0396C50.7489 26.6285 45.1899 22.2141 38.3755 22.2141H29.7679C28.154 18.7966 24.0295 16.2334 19.0084 16.2334C12.7321 16.2334 7.53165 20.363 7.53165 25.3469C7.53165 30.3308 12.7321 34.4604 19.0084 34.4604C24.0295 34.4604 28.154 32.0396 29.7679 28.4797H38.3755C40.8861 28.4797 43.038 30.046 43.038 32.182ZM19.0084 22.4989C21.1603 22.4989 22.7743 23.7805 22.7743 25.4893C22.7743 27.0557 21.1603 28.4797 19.0084 28.4797C16.8565 28.4797 15.2426 27.1981 15.2426 25.4893C15.2426 23.7805 16.8565 22.4989 19.0084 22.4989ZM159.716 77.2077C163.325 78.9853 167.3 79.5657 170.452 79.5657C177.67 79.5657 181.553 77.3891 184.523 74.4505C186.899 71.9111 187.949 69.154 187.949 66.5057C187.949 61.4993 185.163 57.8352 181.691 55.6586C177.853 53.2642 174.335 52.7926 170.543 52.7926C166.432 52.7926 161.269 53.5182 157.249 57.3999C153.731 60.7738 153 64.2202 153 66.4331C153 71.7297 156.472 75.6477 159.716 77.2077ZM180.777 66.7959C180.777 69.7707 179.269 77.8607 170.817 77.8607C167.025 77.8607 160.31 74.5594 160.31 65.2722C160.31 62.2974 161.68 58.4882 164.376 56.4567C166.978 54.458 169.142 54.4838 170.161 54.496C170.234 54.4969 170.3 54.4977 170.361 54.4977C174.198 54.4977 180.777 58.851 180.777 66.7959ZM202.66 67.6666V64.5467C202.66 62.772 202.727 59.5622 202.767 57.6289C202.785 56.7958 202.797 56.1997 202.797 56.0576C202.797 55.0781 202.98 54.7153 204.396 54.7153H206.543C206.909 54.7153 207 54.6065 207 54.4251V53.5907C207 53.3368 206.955 53.2279 206.589 53.2279C206.5 53.2279 206.339 53.2331 206.088 53.2411C205.183 53.2701 203.099 53.3368 198.914 53.3368C195.829 53.3368 194.128 53.2769 193.25 53.2459C192.945 53.2352 192.739 53.2279 192.609 53.2279C192.335 53.2279 192.29 53.3005 192.29 53.4819V54.3526C192.29 54.534 192.335 54.7153 192.609 54.7153H194.3C195.35 54.7153 195.579 55.0781 195.67 56.0213C195.716 56.6018 195.807 60.4473 195.807 62.769V64.8006C195.807 66.2209 195.751 70.4506 195.71 73.4806C195.688 75.1717 195.67 76.4892 195.67 76.736C195.67 77.1351 195.396 77.643 193.706 77.643H192.29C192.015 77.643 191.97 77.7156 191.97 77.8969V78.8039C191.97 79.0578 192.015 79.1304 192.335 79.1304C192.493 79.1304 192.726 79.1227 193.067 79.1114C194.008 79.0802 195.777 79.0216 199.097 79.0216C203.3 79.0216 216.457 79.0578 217.645 79.1304C217.919 78.1509 219.747 72.165 219.884 71.9111C219.929 71.6934 219.929 71.6571 219.792 71.5846L218.879 71.2944C218.604 71.1855 218.467 71.2944 218.33 71.512C217.645 72.8543 214.538 77.2077 212.071 77.3891C209.604 77.5704 207.548 77.5704 205.401 77.5704H202.797C202.66 76.1193 202.66 68.2833 202.66 67.6666ZM226.645 63.8211V66.3606C226.645 68.2833 226.508 76.1193 226.417 76.6635C226.234 77.5342 225.274 77.643 224.361 77.643H223.036C222.807 77.643 222.67 77.7156 222.67 77.8607V78.8402C222.67 79.0578 222.807 79.1304 223.036 79.1304C223.159 79.1304 223.369 79.1239 223.687 79.114C224.669 79.0837 226.676 79.0216 230.3 79.0216C233.502 79.0216 235.336 79.0808 236.298 79.1119C236.64 79.1229 236.872 79.1304 237.016 79.1304C237.29 79.1304 237.427 79.0578 237.427 78.9127V77.8969C237.427 77.7156 237.29 77.643 237.061 77.643H235.188C234.32 77.643 233.635 77.4616 233.635 76.337C233.635 76.178 233.602 74.1103 233.569 71.9881C233.534 69.7512 233.498 67.4537 233.498 67.2675V64.4741C233.498 64.2465 233.535 61.9468 233.571 59.7518C233.604 57.7481 233.635 55.8317 233.635 55.6586C233.635 55.0056 234.32 54.7153 235.462 54.7153H236.787C237.016 54.7153 237.153 54.6428 237.153 54.4614V53.5544C237.153 53.3368 237.061 53.2279 236.833 53.2279C236.66 53.2279 236.427 53.2359 236.087 53.2475C235.169 53.2788 233.472 53.3368 230.071 53.3368C226.755 53.3368 224.617 53.2771 223.508 53.2461C223.12 53.2353 222.858 53.2279 222.716 53.2279C222.533 53.2279 222.396 53.3005 222.396 53.4456V54.4977C222.396 54.6428 222.533 54.7153 222.762 54.7153H224.955C225.914 54.7153 226.371 55.0781 226.462 55.9488C226.508 56.4204 226.645 62.9504 226.645 63.8211ZM261.001 53.4819V54.3888C261.001 54.6065 261.046 54.7153 261.229 54.7153H262.645C263.97 54.7153 264.518 55.4772 264.518 55.9125C264.518 56.3478 264.518 56.9646 264.061 57.9078C263.331 59.5403 261.914 62.5877 261.046 64.3653C260.452 65.6713 258.214 70.206 256.889 72.6366H256.706C256.112 71.2218 253.828 65.8889 253.234 64.5467C252.275 62.4425 250.539 58.1255 250.173 56.8195C250.036 56.3116 250.036 55.8762 250.036 55.586C250.036 55.1144 250.904 54.7153 252.001 54.7153H253.965C254.285 54.7153 254.33 54.5702 254.33 54.3888V53.5544C254.33 53.3368 254.285 53.2279 253.874 53.2279C253.78 53.2279 253.602 53.2336 253.326 53.2423C252.389 53.2718 250.327 53.3368 246.655 53.3368C242.401 53.3368 240.54 53.2712 239.707 53.2419C239.466 53.2334 239.311 53.2279 239.209 53.2279C238.934 53.2279 238.889 53.3005 238.889 53.4819V54.3526C238.889 54.534 238.934 54.7153 239.117 54.7153H240.305C241.264 54.7153 241.813 55.0781 242.269 55.9125C242.51 56.3588 243.086 57.6242 243.765 59.1151C244.631 61.018 245.664 63.2883 246.381 64.6918C246.774 65.4599 247.437 66.8191 248.218 68.4171C249.98 72.0264 252.337 76.8537 253.508 78.8402C253.535 78.886 253.561 78.9315 253.586 78.9763C253.822 79.3923 254.023 79.7471 254.559 79.7471C255.061 79.7471 255.29 79.5657 255.61 79.1304C256.091 78.478 258.26 74.4909 260.11 71.0889C261.243 69.0052 262.257 67.141 262.691 66.3968C263.28 65.363 263.895 64.1871 264.523 62.9883C265.744 60.6536 267.011 58.2317 268.219 56.6018C269.407 54.9693 270.823 54.7153 271.6 54.7153H272.65C272.924 54.7153 272.97 54.6065 272.97 54.4614V53.5544C272.97 53.3005 272.924 53.2279 272.65 53.2279C272.553 53.2279 272.414 53.2341 272.202 53.2434C271.522 53.2735 270.089 53.3368 266.848 53.3368C264.608 53.3368 262.882 53.2785 261.956 53.2472C261.617 53.2358 261.385 53.2279 261.275 53.2279C261.046 53.2279 261.001 53.3005 261.001 53.4819ZM279.732 77.2077C283.341 78.9853 287.315 79.5657 290.468 79.5657C297.686 79.5657 301.569 77.3891 304.539 74.4505C306.914 71.9111 307.965 69.154 307.965 66.5057C307.965 61.4993 305.178 57.8352 301.706 55.6586C297.869 53.2642 294.351 52.7926 290.559 52.7926C286.447 52.7926 281.285 53.5182 277.265 57.3999C273.747 60.7738 273.016 64.2202 273.016 66.4331C273.016 71.7297 276.488 75.6477 279.732 77.2077ZM300.793 66.7959C300.793 69.7707 299.285 77.8607 290.833 77.8607C287.041 77.8607 280.326 74.5594 280.326 65.2722C280.326 62.2974 281.696 58.4882 284.392 56.4567C286.994 54.458 289.158 54.4838 290.177 54.496C290.249 54.4969 290.316 54.4977 290.376 54.4977C294.214 54.4977 300.793 58.851 300.793 66.7959ZM315.092 71.0041L313.904 70.9316C313.722 70.9316 313.585 70.9316 313.539 71.1855L312.808 78.0783C312.762 78.4774 312.945 78.6588 313.448 78.6588C313.767 78.6588 313.996 78.6225 314.27 78.2234L314.296 78.1894C314.556 77.8449 314.735 77.6067 315.001 77.6067C315.229 77.6067 315.503 77.7156 316.052 78.0058C317.97 79.0216 320.118 79.5657 324.229 79.5657C330.26 79.5657 334.234 75.9742 334.234 71.5483C334.234 69.0089 333.503 67.4126 331.722 66.1429C329.849 64.8006 328.067 63.8937 325.874 63.3858C323.635 62.8779 321.031 62.0072 319.844 61.0277C318.701 60.1208 318.656 59.0324 318.656 57.6901C318.656 56.7469 320.072 54.3888 323.498 54.3888C325.554 54.3888 326.925 54.8967 328.067 55.9125C329.62 57.2185 330.397 58.6334 330.899 59.6854C331.036 59.9394 331.265 60.0119 331.493 59.9394L332.498 59.6854C332.635 59.6491 332.727 59.6129 332.727 59.4678L331.996 53.2642C331.95 53.0466 331.859 52.6475 331.539 52.6475C331.265 52.6475 331.036 52.7201 330.854 52.8652L330.26 53.3368C329.986 53.5907 329.666 53.6633 329.209 53.5182C328.25 53.2279 326.468 52.7926 323.133 52.7926C320.346 52.7926 318.61 53.3005 316.554 54.534C313.813 56.1665 313.128 57.6539 313.128 59.8668C313.128 61.9709 313.813 63.8937 315.412 65.0183C317.742 66.6145 320.666 67.7754 322.036 68.1745C327.976 69.9521 328.706 70.8227 328.706 73.8338C328.706 76.6998 325.189 77.8607 322.996 77.8607C320.803 77.8607 318.564 77.0625 317.239 75.3938C316.143 73.9789 315.503 72.419 315.412 71.2944C315.412 71.0404 315.275 71.0041 315.092 71.0041ZM357.9 69.4079V68.0656C359.133 68.1382 360.184 68.1745 361.6 68.1745C369.275 68.1745 373.661 65.1997 373.661 60.8463C373.661 58.452 372.29 56.3841 370.372 55.2232C367.722 53.5907 365.026 53.2279 359.407 53.2279C358.54 53.2279 357.28 53.264 356.209 53.2945C355.418 53.3171 354.731 53.3368 354.382 53.3368C350.758 53.3368 348.933 53.2747 348.04 53.2443C347.752 53.2345 347.56 53.2279 347.438 53.2279C347.209 53.2279 347.163 53.3005 347.163 53.4819V54.4251C347.163 54.6428 347.209 54.7153 347.438 54.7153H349.585C350.498 54.7153 350.955 54.7879 351.047 55.5135C351.092 55.9488 351.138 59.758 351.138 62.1523V66.3243C351.138 70.5325 351.001 76.1919 350.955 76.5547C350.818 77.4616 350.498 77.643 348.945 77.643H347.757C347.529 77.643 347.483 77.7156 347.483 77.8969V78.8764C347.483 79.0216 347.529 79.1304 347.849 79.1304C347.98 79.1304 348.199 79.123 348.521 79.112C349.435 79.081 351.183 79.0216 354.153 79.0216C358.125 79.0216 359.927 79.0816 360.854 79.1125C361.174 79.1232 361.39 79.1304 361.554 79.1304C361.92 79.1304 361.966 79.0216 361.966 78.8402V77.8969C361.966 77.7518 361.92 77.643 361.6 77.643H359.27C358.539 77.643 358.082 77.2802 357.991 76.4821C357.945 76.0468 357.9 71.113 357.9 69.4079ZM357.9 66.6508V54.7153C358.722 54.5702 359.27 54.534 360.047 54.534C361.92 54.534 366.488 55.586 366.488 60.5924C366.488 61.9347 366.306 63.3132 365.392 64.4378C364.387 65.7076 362.103 66.8685 360.686 66.8685C359.955 66.8685 358.905 66.8322 357.9 66.6508ZM382.204 76.2282C385.082 78.2597 388.28 79.5657 394.357 79.5657C400.798 79.5657 405.23 76.6272 407.879 73.5799C408.062 73.3622 408.017 73.2171 407.879 73.1445L407.103 72.6004C406.874 72.4552 406.646 72.6004 406.418 72.8906C404.727 74.8859 400.844 76.7723 395.636 76.7723C394.082 76.7723 391.478 76.4821 388.509 74.0515C385.265 71.3306 384.443 66.8684 384.443 64.5829C384.397 59.2138 387.23 54.3888 393.9 54.3888C397.372 54.3888 399.793 55.586 401.758 57.1097C403.676 58.6696 404.91 60.5198 405.412 61.9709C405.549 62.2974 405.732 62.4425 405.961 62.37L406.966 62.1523C407.194 62.116 407.24 61.9347 407.194 61.6807C406.966 60.5924 406.143 54.4251 406.143 53.7358C406.143 53.2279 406.052 53.1554 405.367 53.1554C404.681 53.1554 404.59 53.1554 404.499 53.3731L404.133 54.28C404.042 54.534 403.813 54.5702 403.174 54.3163C401.575 53.627 398.148 52.7926 393.991 52.7926C388.326 52.7926 384.534 54.4977 381.93 56.7106C378.732 59.4315 377.224 62.8053 377.224 66.5419C377.224 69.6618 378.823 73.8338 382.204 76.2282Z" fill="#111111"/>
</svg>
