<svg width="318" height="104" viewBox="0 0 318 104" fill="none" xmlns="http://www.w3.org/2000/svg">
<g clip-path="url(#clip0_57_31)">
<path d="M52.5527 90.3041V99.3233H69.6044C71.2816 99.3233 72.5395 100.437 72.5395 101.662C72.5395 102.887 71.1419 104 69.6044 104H29.6308C27.9536 104 26.6957 102.887 26.6957 101.662C26.6957 100.437 28.0934 99.3233 29.6308 99.3233H46.6825V90.3041H5.87025C2.65559 90.3041 0 88.1884 0 85.6274V40.7538C0 38.1927 2.65559 36.0771 5.87025 36.0771H25.8571C27.5343 36.0771 28.7922 37.1906 28.7922 38.4154C28.7922 39.6403 27.3945 40.7538 25.8571 40.7538H5.87025V60.3512V85.6274H49.4778C49.4778 85.6274 49.4778 85.6274 49.6176 85.6274C49.6176 85.6274 49.6176 85.6274 49.7574 85.6274H93.365V40.7538H73.5179C71.8407 40.7538 70.5828 39.6403 70.5828 38.4154C70.5828 37.1906 71.9805 36.0771 73.5179 36.0771H93.5047C96.7194 36.0771 99.375 38.1927 99.375 40.7538V85.6274C99.375 88.1884 96.7194 90.3041 93.5047 90.3041H52.5527ZM49.8971 0C54.789 0.111349 58.7025 3.34047 58.5628 7.23769C58.423 10.2441 56.0469 12.8051 52.6925 13.6959V72.5996C52.6925 73.9358 51.2948 74.9379 49.7574 74.9379C48.0802 74.9379 46.8222 73.8244 46.8222 72.5996V13.6959C45.5643 13.3619 44.3064 12.6938 43.3281 11.9143C41.6508 10.5782 40.8122 8.79657 40.8122 6.90364C40.952 3.11777 44.8655 0 49.7574 0H49.8971ZM49.7574 4.67666C48.0802 4.67666 46.8223 5.6788 46.6825 7.01499C46.6825 7.68308 46.962 8.23983 47.5211 8.68523C48.0802 9.13062 48.779 9.35332 49.6176 9.46467H49.7574C51.2948 9.46467 52.6925 8.46253 52.6925 7.12634C52.5527 5.79015 51.2948 4.78801 49.7574 4.67666ZM59.6809 61.576V25.1649C59.6809 20.9336 64.0137 17.4818 69.3249 17.4818H76.0337C77.2917 14.6981 80.5063 12.8051 84.4198 12.8051C89.3117 12.8051 93.365 16.0343 93.365 19.9315C93.365 23.8287 89.3117 27.0578 84.4198 27.0578C80.5063 27.0578 77.2917 25.0535 76.0337 22.3812H69.3249C67.2284 22.3812 65.6909 23.7173 65.6909 25.2762V61.6874C65.6909 63.0236 64.2932 64.0257 62.7558 64.0257C61.0786 64.0257 59.6809 62.9122 59.6809 61.576ZM81.4847 19.9315C81.4847 21.2677 82.7426 22.2698 84.4198 22.2698C86.097 22.2698 87.3549 21.2677 87.3549 19.9315C87.3549 18.5953 86.097 17.4818 84.4198 17.4818C82.7426 17.4818 81.4847 18.5953 81.4847 19.9315ZM33.5443 61.576V25.1649C33.5443 23.4946 31.8671 22.2698 29.9103 22.2698H23.2015C21.9436 25.0535 18.7289 26.9465 14.8154 26.9465C9.92352 26.9465 5.87025 23.7173 5.87025 19.8201C5.87025 15.9229 9.92352 12.6938 14.8154 12.6938C18.7289 12.6938 21.9436 14.6981 23.2015 17.3705H29.9103C35.2215 17.3705 39.5543 20.8223 39.5543 25.0535V61.4647C39.5543 62.8009 38.1566 63.803 36.6192 63.803C35.0817 63.803 33.5443 62.9122 33.5443 61.576ZM17.7505 19.9315C17.7505 18.5953 16.4926 17.5931 14.8154 17.5931C13.1382 17.5931 11.8803 18.5953 11.8803 19.9315C11.8803 21.2677 13.1382 22.2698 14.8154 22.2698C16.4926 22.2698 17.7505 21.1563 17.7505 19.9315Z" fill="#111111"/>
<path d="M115.602 62.0488C113.145 62.0488 110.047 61.595 107.234 60.2049C104.706 58.9851 102 55.9214 102 51.7797C102 50.0493 102.57 47.3544 105.312 44.7162C108.445 41.6808 112.469 41.1135 115.673 41.1135C118.629 41.1135 121.371 41.4823 124.362 43.3545C127.068 45.0566 129.24 47.9217 129.24 51.8365C129.24 53.9073 128.421 56.0633 126.569 58.049C124.255 60.3468 121.228 62.0488 115.602 62.0488V62.0488ZM115.887 60.7156C122.474 60.7156 123.65 54.3896 123.65 52.0634C123.65 45.8509 118.522 42.4468 115.531 42.4468C114.819 42.4468 113.038 42.3049 110.866 43.9786C108.765 45.5672 107.697 48.5458 107.697 50.872C107.697 58.1341 112.932 60.7156 115.887 60.7156ZM140.706 50.3046V52.7442C140.706 53.2265 140.706 59.3539 140.813 60.4886H142.842C144.516 60.4886 146.118 60.4886 148.041 60.3468C149.964 60.2049 152.385 56.8008 152.919 55.7512C153.026 55.581 153.133 55.4959 153.346 55.581L154.059 55.8079C154.165 55.8647 154.165 55.893 154.13 56.0633C154.023 56.2618 152.599 60.9425 152.385 61.7084C151.459 61.6517 141.204 61.6233 137.928 61.6233C134.403 61.6233 133.121 61.7084 132.658 61.7084C132.409 61.7084 132.373 61.6517 132.373 61.4531V60.7439C132.373 60.6021 132.409 60.5454 132.623 60.5454H133.727C135.044 60.5454 135.258 60.1482 135.258 59.8362C135.258 59.2972 135.365 52.2336 135.365 50.5032V48.9146C135.365 47.0991 135.293 44.0921 135.258 43.6382C135.186 42.9006 135.008 42.617 134.189 42.617H132.872C132.658 42.617 132.623 42.4751 132.623 42.3333V41.6525C132.623 41.5106 132.658 41.4539 132.872 41.4539C133.264 41.4539 134.546 41.539 137.786 41.539C141.952 41.539 143.448 41.4539 143.768 41.4539C144.053 41.4539 144.088 41.539 144.088 41.7376V42.39C144.088 42.5319 144.017 42.617 143.732 42.617H142.059C140.955 42.617 140.813 42.9006 140.813 43.6666C140.813 44.0353 140.706 48.3189 140.706 50.3046ZM159.4 51.723V49.7373C159.4 49.0564 159.293 43.9502 159.257 43.5815C159.186 42.9006 158.83 42.617 158.082 42.617H156.373C156.195 42.617 156.088 42.5602 156.088 42.4468V41.6241C156.088 41.5106 156.195 41.4539 156.338 41.4539C156.765 41.4539 158.581 41.539 162.07 41.539C165.702 41.539 166.842 41.4539 167.34 41.4539C167.518 41.4539 167.59 41.539 167.59 41.7092V42.4184C167.59 42.5602 167.483 42.617 167.305 42.617H166.272C165.382 42.617 164.848 42.8439 164.848 43.3545C164.848 43.6382 164.741 49.9075 164.741 50.2479V52.4322C164.741 52.7159 164.848 59.2688 164.848 59.5241C164.848 60.4035 165.382 60.5454 166.058 60.5454H167.518C167.696 60.5454 167.803 60.6021 167.803 60.7439V61.5382C167.803 61.6517 167.696 61.7084 167.483 61.7084C167.055 61.7084 165.631 61.6233 162.248 61.6233C158.51 61.6233 156.978 61.7084 156.587 61.7084C156.409 61.7084 156.302 61.6517 156.302 61.4815V60.7156C156.302 60.6021 156.409 60.5454 156.587 60.5454H157.619C158.332 60.5454 159.079 60.4602 159.222 59.7794C159.293 59.3539 159.4 53.2265 159.4 51.723V51.723ZM186.177 42.3617V41.6525C186.177 41.5106 186.213 41.4539 186.391 41.4539C186.711 41.4539 188.349 41.539 190.735 41.539C194.046 41.539 194.936 41.4539 195.257 41.4539C195.471 41.4539 195.506 41.5106 195.506 41.7092V42.4184C195.506 42.5319 195.471 42.617 195.257 42.617H194.438C193.833 42.617 192.729 42.8155 191.803 44.0921C190.379 46.0211 188.847 49.3685 187.494 51.7514C186.604 53.2832 182.581 60.8858 181.975 61.7084C181.726 62.0488 181.548 62.1907 181.156 62.1907C180.693 62.1907 180.551 61.8503 180.337 61.4815C179.02 59.2404 175.779 52.3755 174.782 50.4181C173.785 48.4607 172.005 44.3474 171.578 43.5531C171.222 42.9006 170.794 42.617 170.047 42.617H169.121C168.978 42.617 168.943 42.4751 168.943 42.3333V41.6525C168.943 41.5106 168.978 41.4539 169.192 41.4539C169.548 41.4539 170.723 41.539 174.996 41.539C178.699 41.539 180.302 41.4539 180.622 41.4539C180.943 41.4539 180.978 41.539 180.978 41.7092V42.3617C180.978 42.5035 180.943 42.617 180.693 42.617H179.162C178.308 42.617 177.631 42.929 177.631 43.2978C177.631 43.5247 177.631 43.8651 177.738 44.2623C178.023 45.2835 179.376 48.6593 180.124 50.3046C180.586 51.3542 182.367 55.5243 182.83 56.6306H182.972C184.005 54.73 185.75 51.184 186.213 50.1628C186.889 48.7728 187.993 46.3899 188.563 45.1133C188.919 44.3758 188.919 43.8935 188.919 43.5531C188.919 43.2127 188.491 42.617 187.459 42.617H186.355C186.213 42.617 186.177 42.5319 186.177 42.3617V42.3617ZM209.144 62.0488C206.687 62.0488 203.589 61.595 200.776 60.2049C198.248 58.9851 195.542 55.9214 195.542 51.7797C195.542 50.0493 196.111 47.3544 198.853 44.7162C201.987 41.6808 206.01 41.1135 209.215 41.1135C212.171 41.1135 214.912 41.4823 217.903 43.3545C220.61 45.0566 222.782 47.9217 222.782 51.8365C222.782 53.9073 221.963 56.0633 220.111 58.049C217.797 60.3468 214.77 62.0488 209.144 62.0488V62.0488ZM209.429 60.7156C216.016 60.7156 217.191 54.3896 217.191 52.0634C217.191 45.8509 212.064 42.4468 209.073 42.4468C208.361 42.4468 206.58 42.3049 204.408 43.9786C202.307 45.5672 201.239 48.5458 201.239 50.872C201.239 58.1341 206.473 60.7156 209.429 60.7156V60.7156ZM227.411 55.2973L228.337 55.3541C228.479 55.3541 228.586 55.3824 228.586 55.581C228.657 56.4604 229.156 57.6802 230.01 58.7866C231.043 60.0915 232.788 60.7156 234.497 60.7156C236.206 60.7156 238.948 59.8078 238.948 57.5667C238.948 55.2122 238.378 54.5314 233.749 53.1414C232.681 52.8293 230.402 51.9216 228.586 50.6734C227.34 49.794 226.805 48.2905 226.805 46.6452C226.805 44.9147 227.34 43.7517 229.476 42.4751C231.078 41.5106 232.431 41.1135 234.604 41.1135C237.203 41.1135 238.592 41.4539 239.339 41.6808C239.695 41.7943 239.945 41.7376 240.158 41.539L240.621 41.1702C240.764 41.0567 240.942 41 241.155 41C241.405 41 241.476 41.312 241.511 41.4823L242.081 46.3331C242.081 46.4466 242.01 46.475 241.903 46.5033L241.12 46.7019C240.942 46.7586 240.764 46.7019 240.657 46.5033C240.265 45.6807 239.66 44.5743 238.449 43.5531C237.559 42.7588 236.491 42.3617 234.888 42.3617C232.218 42.3617 231.114 44.2056 231.114 44.9431C231.114 45.9927 231.15 46.8437 232.04 47.5529C232.966 48.3189 234.995 48.9997 236.74 49.3968C238.449 49.794 239.838 50.5032 241.298 51.5528C242.687 52.5457 243.256 53.7938 243.256 55.7796C243.256 59.2404 240.158 62.0488 235.458 62.0488C232.253 62.0488 230.58 61.6233 229.084 60.829C228.657 60.6021 228.443 60.517 228.265 60.517C228.052 60.517 227.909 60.7156 227.696 60.9992C227.482 61.3113 227.304 61.3396 227.055 61.3396C226.663 61.3396 226.521 61.1978 226.556 60.8858L227.126 55.4959C227.162 55.2973 227.268 55.2973 227.411 55.2973V55.2973ZM261.701 53.0563V54.1059C261.701 55.4392 261.737 59.2972 261.772 59.6376C261.844 60.2617 262.2 60.5454 262.769 60.5454H264.585C264.835 60.5454 264.87 60.6305 264.87 60.7439V61.4815C264.87 61.6233 264.835 61.7084 264.55 61.7084C264.051 61.7084 262.947 61.6233 258.781 61.6233C255.648 61.6233 254.259 61.7084 253.867 61.7084C253.618 61.7084 253.583 61.6233 253.583 61.5099V60.7439C253.583 60.6021 253.618 60.5454 253.796 60.5454H254.722C255.933 60.5454 256.182 60.4035 256.289 59.6943C256.324 59.4106 256.431 54.9853 256.431 51.6946V48.4323C256.431 46.5601 256.396 43.5815 256.36 43.241C256.289 42.6737 255.933 42.617 255.22 42.617H253.547C253.369 42.617 253.333 42.5602 253.333 42.39V41.6525C253.333 41.5106 253.369 41.4539 253.547 41.4539C253.939 41.4539 255.22 41.539 258.959 41.539C259.6 41.539 261.701 41.4539 262.876 41.4539C267.256 41.4539 269.357 41.7376 271.422 43.0141C272.918 43.9219 273.986 45.5388 273.986 47.4111C273.986 50.8152 270.567 53.1414 264.585 53.1414C263.481 53.1414 262.663 53.113 261.701 53.0563V53.0563ZM261.701 42.617V51.9499C262.484 52.0918 263.303 52.1201 263.873 52.1201C264.977 52.1201 266.757 51.2124 267.541 50.2195C268.253 49.3401 268.395 48.2621 268.395 47.2125C268.395 43.2978 264.835 42.4751 263.375 42.4751C262.769 42.4751 262.342 42.5035 261.701 42.617V42.617ZM290.116 62.0488C285.38 62.0488 282.888 61.0276 280.644 59.439C278.009 57.5667 276.763 54.3045 276.763 51.8648C276.763 48.943 277.938 46.3048 280.431 44.1772C282.46 42.4468 285.416 41.1135 289.831 41.1135C293.072 41.1135 295.742 41.7659 296.988 42.3049C297.487 42.5035 297.665 42.4751 297.736 42.2765L298.021 41.5674C298.092 41.3971 298.164 41.3971 298.698 41.3971C299.232 41.3971 299.303 41.4539 299.303 41.851C299.303 42.39 299.944 47.2125 300.122 48.0636C300.158 48.2621 300.122 48.404 299.944 48.4323L299.161 48.6025C298.982 48.6593 298.84 48.5458 298.733 48.2905C298.342 47.1558 297.38 45.709 295.885 44.4892C294.353 43.2978 292.466 42.3617 289.76 42.3617C284.561 42.3617 282.354 46.1346 282.389 50.333C282.389 52.1201 283.03 55.6094 285.558 57.7369C287.873 59.6376 289.902 59.8645 291.113 59.8645C295.172 59.8645 298.199 58.3894 299.517 56.8292C299.695 56.6022 299.873 56.4888 300.051 56.6022L300.656 57.0278C300.763 57.0845 300.798 57.198 300.656 57.3682C298.591 59.7511 295.137 62.0488 290.116 62.0488V62.0488Z" fill="#111111"/>
</g>
<defs>
<clipPath id="clip0_57_31">
<rect width="318" height="104" fill="white"/>
</clipPath>
</defs>
</svg>
