<svg width="33" height="31" viewBox="0 0 33 31" fill="none" xmlns="http://www.w3.org/2000/svg">
<g filter="url(#filter0_d_57_32)">
<path d="M16.696 19.3246V21.2547H20.8154C21.2206 21.2547 21.5245 21.493 21.5245 21.7551C21.5245 22.0172 21.1869 22.2555 20.8154 22.2555H11.1584C10.7532 22.2555 10.4493 22.0172 10.4493 21.7551C10.4493 21.493 10.787 21.2547 11.1584 21.2547H15.2778V19.3246H5.41817C4.64155 19.3246 4 18.8719 4 18.3238V8.7211C4 8.17305 4.64155 7.72032 5.41817 7.72032H10.2467C10.6519 7.72032 10.9558 7.9586 10.9558 8.22071C10.9558 8.48282 10.6181 8.7211 10.2467 8.7211H5.41817V12.9149V18.3238H15.9531C15.9531 18.3238 15.9531 18.3238 15.9869 18.3238C15.9869 18.3238 15.9869 18.3238 16.0207 18.3238H26.5556V8.7211H21.7609C21.3557 8.7211 21.0518 8.48282 21.0518 8.22071C21.0518 7.9586 21.3894 7.72032 21.7609 7.72032H26.5894C27.366 7.72032 28.0076 8.17305 28.0076 8.7211V18.3238C28.0076 18.8719 27.366 19.3246 26.5894 19.3246H16.696ZM16.0544 0C17.2362 0.0238281 18.1817 0.714844 18.1479 1.54883C18.1142 2.19219 17.5401 2.74024 16.7298 2.93086V15.5359C16.7298 15.8219 16.3921 16.0363 16.0207 16.0363C15.6155 16.0363 15.3116 15.7981 15.3116 15.5359V2.93086C15.0077 2.85938 14.7038 2.71641 14.4674 2.54961C14.0622 2.26367 13.8596 1.88242 13.8596 1.47734C13.8934 0.667188 14.8389 0 16.0207 0H16.0544ZM16.0207 1.00078C15.6155 1.00078 15.3116 1.21524 15.2778 1.50117C15.2778 1.64414 15.3453 1.76328 15.4804 1.85859C15.6155 1.95391 15.7843 2.00156 15.9869 2.02539H16.0207C16.3921 2.02539 16.7298 1.81094 16.7298 1.525C16.696 1.23906 16.3921 1.02461 16.0207 1.00078ZM18.418 13.177V5.38516C18.418 4.47969 19.4648 3.74102 20.7479 3.74102H22.3687C22.6726 3.14531 23.4492 2.74024 24.3946 2.74024C25.5764 2.74024 26.5556 3.43125 26.5556 4.26524C26.5556 5.09922 25.5764 5.79024 24.3946 5.79024C23.4492 5.79024 22.6726 5.36133 22.3687 4.78946H20.7479C20.2414 4.78946 19.87 5.07539 19.87 5.40899V13.2008C19.87 13.4867 19.5323 13.7012 19.1609 13.7012C18.7557 13.7012 18.418 13.4629 18.418 13.177ZM23.6855 4.26524C23.6855 4.55117 23.9894 4.76563 24.3946 4.76563C24.7998 4.76563 25.1037 4.55117 25.1037 4.26524C25.1037 3.9793 24.7998 3.74102 24.3946 3.74102C23.9894 3.74102 23.6855 3.9793 23.6855 4.26524ZM12.1038 13.177V5.38516C12.1038 5.02774 11.6986 4.76563 11.2259 4.76563H9.60514C9.30125 5.36133 8.52463 5.76641 7.57919 5.76641C6.39738 5.76641 5.41817 5.07539 5.41817 4.24141C5.41817 3.40742 6.39738 2.71641 7.57919 2.71641C8.52463 2.71641 9.30125 3.14531 9.60514 3.71719H11.2259C12.509 3.71719 13.5558 4.45586 13.5558 5.36133V13.1531C13.5558 13.4391 13.2181 13.6535 12.8467 13.6535C12.4752 13.6535 12.1038 13.4629 12.1038 13.177ZM8.28827 4.26524C8.28827 3.9793 7.98438 3.76485 7.57919 3.76485C7.174 3.76485 6.8701 3.9793 6.8701 4.26524C6.8701 4.55117 7.174 4.76563 7.57919 4.76563C7.98438 4.76563 8.28827 4.52735 8.28827 4.26524Z" fill="#111111"/>
</g>
<defs>
<filter id="filter0_d_57_32" x="0" y="0" width="32.0076" height="30.2554" filterUnits="userSpaceOnUse" color-interpolation-filters="sRGB">
<feFlood flood-opacity="0" result="BackgroundImageFix"/>
<feColorMatrix in="SourceAlpha" type="matrix" values="0 0 0 0 0 0 0 0 0 0 0 0 0 0 0 0 0 0 127 0" result="hardAlpha"/>
<feOffset dy="4"/>
<feGaussianBlur stdDeviation="2"/>
<feComposite in2="hardAlpha" operator="out"/>
<feColorMatrix type="matrix" values="0 0 0 0 0 0 0 0 0 0 0 0 0 0 0 0 0 0 0.25 0"/>
<feBlend mode="normal" in2="BackgroundImageFix" result="effect1_dropShadow_57_32"/>
<feBlend mode="normal" in="SourceGraphic" in2="effect1_dropShadow_57_32" result="shape"/>
</filter>
</defs>
</svg>
