<svg width="63" height="6" viewBox="0 0 63 6" fill="none" xmlns="http://www.w3.org/2000/svg">
<path d="M4.31164 5.91009C3.53283 5.91009 2.55086 5.78265 1.65919 5.39236C0.857813 5.04986 0 4.18963 0 3.02673C0 2.54086 0.180592 1.78418 1.04969 1.04343C2.04295 0.191162 3.31838 0.0318603 4.33421 0.0318603C5.27103 0.0318603 6.14013 0.135406 7.08824 0.661102C7.94605 1.13901 8.63456 1.94348 8.63456 3.04266C8.63456 3.62411 8.37496 4.22946 7.78804 4.78701C7.05438 5.43219 6.09498 5.91009 4.31164 5.91009V5.91009ZM4.40193 5.53573C6.49003 5.53573 6.8625 3.75952 6.8625 3.10638C6.8625 1.36203 5.23717 0.406219 4.28906 0.406219C4.06332 0.406219 3.49897 0.366394 2.81047 0.836334C2.14453 1.28238 1.80592 2.11871 1.80592 2.77185C1.80592 4.81091 3.46511 5.53573 4.40193 5.53573ZM12.269 2.61255V3.29754C12.269 3.43295 12.269 5.15341 12.3028 5.47201H12.9462C13.4767 5.47201 13.9846 5.47201 14.5941 5.43219C15.2036 5.39236 15.9711 4.43655 16.1404 4.14184C16.1743 4.09405 16.2081 4.07016 16.2759 4.09405L16.5016 4.15777C16.5355 4.1737 16.5355 4.18167 16.5242 4.22946C16.4903 4.28521 16.0388 5.59945 15.9711 5.81451C15.6777 5.79858 12.427 5.79061 11.3886 5.79061C10.2712 5.79061 9.86485 5.81451 9.71811 5.81451C9.6391 5.81451 9.62782 5.79858 9.62782 5.74282V5.5437C9.62782 5.50387 9.6391 5.48794 9.70683 5.48794H10.0567C10.4743 5.48794 10.5421 5.37643 10.5421 5.28881C10.5421 5.13748 10.5759 3.15417 10.5759 2.6683V2.22226C10.5759 1.71249 10.5534 0.868194 10.5421 0.740753C10.5195 0.533661 10.4631 0.45401 10.2035 0.45401H9.78584C9.71811 0.45401 9.70683 0.414184 9.70683 0.374359V0.183197C9.70683 0.143371 9.71811 0.127441 9.78584 0.127441C9.90999 0.127441 10.3163 0.151337 11.3434 0.151337C12.664 0.151337 13.1381 0.127441 13.2397 0.127441C13.33 0.127441 13.3412 0.151337 13.3412 0.207092V0.390289C13.3412 0.430114 13.3187 0.45401 13.2284 0.45401H12.6979C12.348 0.45401 12.3028 0.533661 12.3028 0.748718C12.3028 0.852264 12.269 2.05499 12.269 2.61255ZM18.1947 3.0108V2.45325C18.1947 2.26208 18.1608 0.828369 18.1495 0.724823C18.1269 0.533661 18.0141 0.45401 17.777 0.45401H17.2353C17.1788 0.45401 17.145 0.438079 17.145 0.406219V0.175232C17.145 0.143371 17.1788 0.127441 17.224 0.127441C17.3594 0.127441 17.9351 0.151337 19.0412 0.151337C20.1925 0.151337 20.5536 0.127441 20.7117 0.127441C20.7681 0.127441 20.7907 0.151337 20.7907 0.199127V0.398254C20.7907 0.43808 20.7568 0.45401 20.7004 0.45401H20.373C20.0909 0.45401 19.9216 0.51773 19.9216 0.661102C19.9216 0.740753 19.8877 2.50104 19.8877 2.59662V3.20993C19.8877 3.28958 19.9216 5.12951 19.9216 5.2012C19.9216 5.44812 20.0909 5.48794 20.3053 5.48794H20.7681C20.8245 5.48794 20.8584 5.50387 20.8584 5.5437V5.76672C20.8584 5.79858 20.8245 5.81451 20.7568 5.81451C20.6214 5.81451 20.1699 5.79061 19.0976 5.79061C17.9125 5.79061 17.4271 5.81451 17.303 5.81451C17.2465 5.81451 17.2127 5.79858 17.2127 5.75079V5.53573C17.2127 5.50387 17.2465 5.48794 17.303 5.48794H17.6303C17.856 5.48794 18.0931 5.46405 18.1382 5.27288C18.1608 5.15341 18.1947 3.43295 18.1947 3.0108V3.0108ZM26.6825 0.382324V0.183197C26.6825 0.143371 26.6938 0.127441 26.7502 0.127441C26.8518 0.127441 27.371 0.151337 28.1272 0.151337C29.1769 0.151337 29.4591 0.127441 29.5607 0.127441C29.6284 0.127441 29.6397 0.143371 29.6397 0.199127V0.398254C29.6397 0.430114 29.6284 0.45401 29.5607 0.45401H29.3011C29.1092 0.45401 28.7593 0.509765 28.4658 0.868194C28.0144 1.40982 27.529 2.3497 27.1001 3.01877C26.8179 3.44888 25.5425 5.58352 25.3506 5.81451C25.2716 5.91009 25.2152 5.94992 25.091 5.94992C24.9443 5.94992 24.8991 5.85434 24.8314 5.75079C24.4138 5.12155 23.3867 3.194 23.0706 2.64441C22.7546 2.09482 22.1903 0.93988 22.0548 0.716857C21.9419 0.533661 21.8065 0.45401 21.5695 0.45401H21.276C21.2309 0.45401 21.2196 0.414184 21.2196 0.374359V0.183197C21.2196 0.143371 21.2309 0.127441 21.2986 0.127441C21.4115 0.127441 21.7839 0.151337 23.1384 0.151337C24.3122 0.151337 24.8201 0.127441 24.9217 0.127441C25.0233 0.127441 25.0346 0.151337 25.0346 0.199127V0.382324C25.0346 0.422149 25.0233 0.45401 24.9443 0.45401H24.4589C24.1881 0.45401 23.9736 0.541626 23.9736 0.645172C23.9736 0.708892 23.9736 0.804473 24.0075 0.915984C24.0978 1.20273 24.5267 2.15057 24.7637 2.61255C24.9104 2.90726 25.4748 4.07812 25.6215 4.38876H25.6667C25.994 3.8551 26.547 2.85946 26.6938 2.57272C26.9082 2.18243 27.2581 1.51337 27.4387 1.15494C27.5516 0.947845 27.5516 0.812438 27.5516 0.716857C27.5516 0.621276 27.4161 0.45401 27.0888 0.45401H26.7389C26.6938 0.45401 26.6825 0.430114 26.6825 0.382324V0.382324ZM33.9626 5.91009C33.1838 5.91009 32.2018 5.78265 31.3102 5.39236C30.5088 5.04986 29.651 4.18963 29.651 3.02673C29.651 2.54086 29.8316 1.78418 30.7007 1.04343C31.6939 0.191162 32.9694 0.0318603 33.9852 0.0318603C34.922 0.0318603 35.7911 0.135406 36.7392 0.661102C37.597 1.13901 38.2855 1.94348 38.2855 3.04266C38.2855 3.62411 38.0259 4.22946 37.439 4.78701C36.7054 5.43219 35.746 5.91009 33.9626 5.91009V5.91009ZM34.0529 5.53573C36.141 5.53573 36.5135 3.75952 36.5135 3.10638C36.5135 1.36203 34.8881 0.406219 33.94 0.406219C33.7143 0.406219 33.1499 0.366394 32.4614 0.836334C31.7955 1.28238 31.4569 2.11871 31.4569 2.77185C31.4569 4.81091 33.1161 5.53573 34.0529 5.53573V5.53573ZM39.7528 4.0144L40.0463 4.03033C40.0915 4.03033 40.1253 4.0383 40.1253 4.09405C40.1479 4.34097 40.3059 4.68347 40.5768 4.99411C40.9041 5.3605 41.4572 5.53573 41.999 5.53573C42.5407 5.53573 43.4098 5.28085 43.4098 4.65161C43.4098 3.99051 43.2292 3.79934 41.7619 3.40906C41.4233 3.32144 40.701 3.06656 40.1253 2.71609C39.7303 2.46918 39.561 2.04703 39.561 1.58505C39.561 1.09918 39.7303 0.772613 40.4075 0.414184C40.9154 0.143371 41.3443 0.0318603 42.0328 0.0318603C42.8568 0.0318603 43.297 0.127441 43.534 0.191162C43.6469 0.223022 43.7259 0.207092 43.7936 0.151337L43.9403 0.0477904C43.9855 0.0159301 44.0419 0 44.1096 0C44.1886 0 44.2112 0.087616 44.2225 0.135406L44.4031 1.49744C44.4031 1.5293 44.3805 1.53726 44.3467 1.54523L44.0983 1.60098C44.0419 1.61691 43.9855 1.60098 43.9516 1.54523C43.8275 1.31424 43.6356 1.0036 43.2518 0.716857C42.9696 0.493835 42.631 0.382324 42.1231 0.382324C41.2766 0.382324 40.9267 0.900054 40.9267 1.10715C40.9267 1.40185 40.938 1.64081 41.2202 1.83993C41.5136 2.05499 42.157 2.24615 42.71 2.35766C43.2518 2.46918 43.692 2.6683 44.1548 2.96301C44.595 3.24179 44.7756 3.59225 44.7756 4.14981C44.7756 5.12155 43.7936 5.91009 42.3037 5.91009C41.2879 5.91009 40.7574 5.79061 40.2833 5.56759C40.1479 5.50387 40.0802 5.47998 40.0237 5.47998C39.956 5.47998 39.9109 5.53573 39.8431 5.61538C39.7754 5.703 39.719 5.71096 39.64 5.71096C39.5158 5.71096 39.4707 5.67114 39.482 5.58352L39.6626 4.07016C39.6738 4.0144 39.7077 4.0144 39.7528 4.0144V4.0144ZM50.6222 3.38516V3.67987C50.6222 4.05423 50.6335 5.13748 50.6448 5.23306C50.6674 5.40829 50.7803 5.48794 50.9608 5.48794H51.5365C51.6155 5.48794 51.6268 5.51184 51.6268 5.5437V5.75079C51.6268 5.79061 51.6155 5.81451 51.5252 5.81451C51.3672 5.81451 51.0173 5.79061 49.6967 5.79061C48.7034 5.79061 48.2633 5.81451 48.1391 5.81451C48.0601 5.81451 48.0488 5.79061 48.0488 5.75875V5.5437C48.0488 5.50387 48.0601 5.48794 48.1165 5.48794H48.41C48.7937 5.48794 48.8727 5.44812 48.9066 5.24899C48.9179 5.16934 48.9518 3.92679 48.9518 3.00284V2.08685C48.9518 1.56116 48.9405 0.724822 48.9292 0.629241C48.9066 0.46994 48.7937 0.45401 48.568 0.45401H48.0375C47.9811 0.45401 47.9698 0.43808 47.9698 0.390289V0.183197C47.9698 0.143371 47.9811 0.127441 48.0375 0.127441C48.1617 0.127441 48.568 0.151337 49.7531 0.151337C49.9563 0.151337 50.6222 0.127441 50.9947 0.127441C52.383 0.127441 53.0489 0.207092 53.7036 0.565521C54.1776 0.820403 54.5163 1.27441 54.5163 1.80011C54.5163 2.75592 53.4327 3.40906 51.5365 3.40906C51.1866 3.40906 50.927 3.40109 50.6222 3.38516V3.38516ZM50.6222 0.45401V3.07452C50.8705 3.11435 51.1302 3.12231 51.3107 3.12231C51.6606 3.12231 52.225 2.86743 52.4733 2.58865C52.699 2.34173 52.7442 2.03906 52.7442 1.74435C52.7442 0.645172 51.6155 0.414184 51.1527 0.414184C50.9608 0.414184 50.8254 0.422149 50.6222 0.45401V0.45401ZM59.6293 5.91009C58.1281 5.91009 57.338 5.62335 56.6269 5.1773C55.7917 4.65161 55.3966 3.73562 55.3966 3.05063C55.3966 2.23022 55.7691 1.48947 56.5592 0.892089C57.2026 0.406219 58.1394 0.0318603 59.539 0.0318603C60.5661 0.0318603 61.4126 0.215057 61.8077 0.366394C61.9657 0.422149 62.0221 0.414184 62.0447 0.358429L62.135 0.159302C62.1576 0.111511 62.1801 0.111511 62.3494 0.111511C62.5187 0.111511 62.5413 0.127441 62.5413 0.238952C62.5413 0.390289 62.7445 1.74435 62.8009 1.98331C62.8122 2.03906 62.8009 2.07889 62.7445 2.08685L62.4962 2.13464C62.4397 2.15057 62.3946 2.11871 62.3607 2.04703C62.2366 1.72842 61.9318 1.3222 61.4578 0.979705C60.9724 0.645172 60.3742 0.382324 59.5164 0.382324C57.8685 0.382324 57.1687 1.44168 57.18 2.62051C57.18 3.12231 57.3832 4.10202 58.1845 4.6994C58.9182 5.23306 59.5615 5.29678 59.9453 5.29678C61.232 5.29678 62.1914 4.8826 62.609 4.44452C62.6655 4.3808 62.7219 4.34893 62.7783 4.38079L62.9702 4.50027C63.0041 4.5162 63.0154 4.54806 62.9702 4.59585C62.3156 5.26492 61.2207 5.91009 59.6293 5.91009V5.91009Z" fill="#111111"/>
</svg>
